<svg version="1.2" baseProfile="tiny-ps" xmlns="http://www.w3.org/2000/svg" viewBox="0 0 32 32" width="32" height="32">
	<title>fUSD-svg</title>
	<style>
		tspan { white-space:pre }
		.shp0 { fill: #cda965 } 
	</style>
	<path fill-rule="evenodd" class="shp0" d="M29.77 13.38L30.34 13.38C31.28 13.39 31.83 13.39 31.83 13.41C33.69 26.88 19.62 37.01 7.27 29.37C7.66 28.76 8.91 26.69 8.89 26.68C18.76 33.07 30.71 24.56 28.65 13.38L29.56 13.38C29.63 13.38 29.7 13.38 29.77 13.38ZM24.73 2.63C24.34 3.24 23.09 5.31 23.11 5.32C13.24 -1.07 1.29 7.44 3.35 18.62L2.44 18.62C2.37 18.62 2.3 18.62 2.23 18.62L1.66 18.62C0.72 18.61 0.17 18.61 0.17 18.59C-1.69 5.12 12.38 -5.01 24.73 2.63Z" />
	<path fill-rule="evenodd" class="shp0" d="M16.25 10.91C18.06 10.91 19.21 11.51 19.88 11.75L20.61 8.93C19.76 8.51 18.67 8.21 16.97 8.09L16.97 5.87L14.49 5.87L14.49 8.27C11.77 8.81 10.25 10.49 10.25 12.71C10.25 15.11 12.07 16.37 14.79 17.27C16.67 17.87 17.46 18.47 17.46 19.43C17.46 20.45 16.49 20.99 15.04 20.99C13.4 20.99 11.89 20.45 10.86 19.91L10.13 22.85C11.1 23.39 12.74 23.87 14.43 23.93L14.43 26.33L16.91 26.33L16.91 23.75C19.82 23.27 21.39 21.35 21.39 19.13C21.39 16.91 20.18 15.53 17.16 14.45C15.04 13.67 14.13 13.13 14.13 12.29C14.07 11.57 14.61 10.91 16.25 10.91Z" />
</svg>