<svg version="1.2" baseProfile="tiny-ps" xmlns="http://www.w3.org/2000/svg" viewBox="0 0 512 512" width="512" height="512">
	<title>ICICB-svg</title>
	<defs>
		<linearGradient id="grd1" gradientUnits="userSpaceOnUse"  x1="-26.936" y1="178.687" x2="302.883" y2="-14.833">
			<stop offset="0" stop-color="#a67a44"  />
			<stop offset="0.102" stop-color="#eecf89"  />
			<stop offset="0.301" stop-color="#976224"  />
			<stop offset="0.72" stop-color="#efd58d"  />
			<stop offset="1" stop-color="#81693e"  />
		</linearGradient>
		<linearGradient id="grd2" gradientUnits="userSpaceOnUse"  x1="42.291" y1="383.412" x2="415.788" y2="164.264">
			<stop offset="0" stop-color="#a67a44"  />
			<stop offset="0.102" stop-color="#eecf89"  />
			<stop offset="0.301" stop-color="#976224"  />
			<stop offset="0.72" stop-color="#efd58d"  />
			<stop offset="1" stop-color="#81693e"  />
		</linearGradient>
		<linearGradient id="grd3" gradientUnits="userSpaceOnUse"  x1="9.302" y1="269.393" x2="337.531" y2="76.806">
			<stop offset="0" stop-color="#a67a44"  />
			<stop offset="0.102" stop-color="#eecf89"  />
			<stop offset="0.301" stop-color="#976224"  />
			<stop offset="0.72" stop-color="#efd58d"  />
			<stop offset="1" stop-color="#81693e"  />
		</linearGradient>
		<linearGradient id="grd4" gradientUnits="userSpaceOnUse"  x1="25.826" y1="349.537" x2="394.585" y2="133.169">
			<stop offset="0" stop-color="#a67a44"  />
			<stop offset="0.102" stop-color="#eecf89"  />
			<stop offset="0.301" stop-color="#976224"  />
			<stop offset="0.72" stop-color="#efd58d"  />
			<stop offset="1" stop-color="#81693e"  />
		</linearGradient>
		<linearGradient id="grd5" gradientUnits="userSpaceOnUse"  x1="130.941" y1="363.623" x2="335.211" y2="243.768">
			<stop offset="0" stop-color="#a67a44"  />
			<stop offset="0.102" stop-color="#eecf89"  />
			<stop offset="0.301" stop-color="#976224"  />
			<stop offset="0.72" stop-color="#efd58d"  />
			<stop offset="1" stop-color="#81693e"  />
		</linearGradient>
		<linearGradient id="grd6" gradientUnits="userSpaceOnUse"  x1="91.325" y1="393.227" x2="385.21" y2="220.791">
			<stop offset="0" stop-color="#a67a44"  />
			<stop offset="0.102" stop-color="#eecf89"  />
			<stop offset="0.301" stop-color="#976224"  />
			<stop offset="0.72" stop-color="#efd58d"  />
			<stop offset="1" stop-color="#81693e"  />
		</linearGradient>
	</defs>
	<style>
		tspan { white-space:pre }
		.shp0 { fill: url(#grd1) } 
		.shp1 { fill: url(#grd2) } 
		.shp2 { fill: url(#grd3) } 
		.shp3 { fill: url(#grd4) } 
		.shp4 { fill: url(#grd5) } 
		.shp5 { fill: url(#grd6) } 
		.shp6 { fill: none;stroke: #cda965;stroke-width: 20 } 
	</style>
	<path class="shp0" d="M373.32 311.76C385.46 279.39 380.27 256.37 357.76 242.71C336.51 226.53 306.82 211.56 268.7 197.8C198.31 169.82 164.39 124.85 166.92 62.88C153.77 134.52 183.99 186.09 257.59 217.58C299.33 234.13 326.84 246.66 340.12 255.18C364.4 269.2 375.47 288.06 373.32 311.76Z" />
	<path class="shp1" d="M360.13 231.98C378.35 202.89 403.64 194.98 436 208.26C422.01 212.35 412.13 225.21 406.34 246.82C403.66 262.36 397.44 276.28 387.69 288.57C390.38 263.7 381.19 244.84 360.13 231.98Z" />
	<path class="shp2" d="M360.13 334.25C381.69 293.09 357.76 261.06 288.32 238.17C222.57 214.01 189.43 192.13 188.92 172.53C190.5 209.2 221.55 238.64 282.07 260.84C309.69 271.65 327.99 280.1 336.98 286.16C349.22 294.41 364.22 306.37 360.13 334.25Z" />
	<path class="shp3" d="M227.62 241.58C239.82 253.47 263.76 265.68 299.43 278.19C337.18 289.57 355 306.46 352.92 328.84C339.83 401.69 245.08 398.27 241.09 398.27C180.2 393.53 140.84 400.64 123 419.61C132.11 385.08 167.87 371.05 230.28 377.49C286.05 386.41 320.68 373.32 334.14 338.23C340.97 322.77 333 311.1 310.24 303.23C287.28 296.91 269.61 290.02 257.21 282.56C235.2 268.71 228.38 250.11 227.62 241.58Z" />
	<path class="shp4" d="M185.63 342.87C197.21 318.18 222.08 312.41 260.26 325.52C291.87 336.9 313.76 339.8 325.9 334.25C318.78 347.71 294.29 348.84 252.45 337.66C224.29 330.34 202.02 332.07 185.63 342.87Z" />
	<path class="shp5" d="M150.06 379.89C165.67 350 193.14 339.1 232.48 347.2C291.5 359.35 307.44 352.06 318.1 350.38C303.63 367.16 274.9 372.28 231.91 365.71C202.8 359.16 175.51 363.89 150.06 379.89Z" />
	<path class="shp6" d="M255 495.51C128.36 495.51 26 388.56 26 256.25C26 123.95 128.36 17 255 17C381.64 17 484 123.95 484 256.25C484 388.56 381.64 495.51 255 495.51Z" />
	<path class="shp6" d="M626 227C598.35 227 576 204.65 576 177C576 149.35 598.35 127 626 127C653.65 127 676 149.35 676 177C676 204.65 653.65 227 626 227Z" />
</svg>